<svg xmlns="http://www.w3.org/2000/svg" xmlns:xlink="http://www.w3.org/1999/xlink" viewBox="0 0 1928 960"><defs><style>.a{fill:url(#a);}.b{fill:url(#b);}.c{fill:url(#c);}.d{fill:url(#d);}.e{fill:url(#e);}.f{fill:url(#f);}</style><linearGradient id="a" x1="358" y1="236" x2="358" gradientUnits="userSpaceOnUse"><stop offset="0" stop-color="#444d4b"/><stop offset="1" stop-color="#445351"/></linearGradient><linearGradient id="b" x1="337.25" y1="0.5" x2="337.25" y2="137" gradientUnits="userSpaceOnUse"><stop offset="0" stop-color="#354e4b"/><stop offset="1" stop-color="#334341"/></linearGradient><linearGradient id="c" x1="1804" y1="212" x2="1804" xlink:href="#a"/><linearGradient id="d" x1="1790.25" y1="0.5" x2="1790.25" y2="168.5" xlink:href="#b"/><linearGradient id="e" x1="961" y1="650" x2="961" y2="960" xlink:href="#a"/><linearGradient id="f" x1="964" y1="711" x2="964" y2="960" xlink:href="#b"/></defs><path class="a" d="M0,0H716C302,31,35.61,111.45,1,236Z"/><path class="b" d="M1,137C87,76.07,307.76,27.51,673.5.5H1Z"/><path class="c" d="M1686,0c111.1,55.82,192,125.32,235,212l1-209Z"/><path class="d" d="M1659,.5c79.41,20.6,227.44,72.05,262.5,168V.5Z"/><path class="e" d="M1921,650V960H1V815C690.63,954.93,1316.22,980.62,1921,650Z"/><path class="f" d="M1928,711V960H0V857C462,979.42,1675.54,891.44,1928,711Z"/></svg>