<svg id="wave" style="transform:rotate(178deg); transition: 0.3s" viewBox="0 0 1440 490" version="1.1" xmlns="http://www.w3.org/2000/svg"><defs><linearGradient id="sw-gradient-0" x1="0" x2="0" y1="1" y2="0"><stop stop-color="rgba(97, 105, 104, 1)" offset="0%"></stop><stop stop-color="rgba(52, 52, 52, 1)" offset="100%"></stop></linearGradient></defs><path style="transform:translate(0, 0px); opacity:1" fill="url(#sw-gradient-0)" d="M0,441L240,432.8C480,425,960,408,1440,383.8C1920,359,2400,327,2880,269.5C3360,212,3840,131,4320,81.7C4800,33,5280,16,5760,24.5C6240,33,6720,65,7200,98C7680,131,8160,163,8640,220.5C9120,278,9600,359,10080,367.5C10560,376,11040,310,11520,245C12000,180,12480,114,12960,114.3C13440,114,13920,180,14400,196C14880,212,15360,180,15840,138.8C16320,98,16800,49,17280,73.5C17760,98,18240,196,18720,212.3C19200,229,19680,163,20160,163.3C20640,163,21120,229,21600,245C22080,261,22560,229,23040,212.3C23520,196,24000,196,24480,212.3C24960,229,25440,261,25920,236.8C26400,212,26880,131,27360,138.8C27840,147,28320,245,28800,236.8C29280,229,29760,114,30240,122.5C30720,131,31200,261,31680,302.2C32160,343,32640,294,33120,302.2C33600,310,34080,376,34320,408.3L34560,441L34560,490L34320,490C34080,490,33600,490,33120,490C32640,490,32160,490,31680,490C31200,490,30720,490,30240,490C29760,490,29280,490,28800,490C28320,490,27840,490,27360,490C26880,490,26400,490,25920,490C25440,490,24960,490,24480,490C24000,490,23520,490,23040,490C22560,490,22080,490,21600,490C21120,490,20640,490,20160,490C19680,490,19200,490,18720,490C18240,490,17760,490,17280,490C16800,490,16320,490,15840,490C15360,490,14880,490,14400,490C13920,490,13440,490,12960,490C12480,490,12000,490,11520,490C11040,490,10560,490,10080,490C9600,490,9120,490,8640,490C8160,490,7680,490,7200,490C6720,490,6240,490,5760,490C5280,490,4800,490,4320,490C3840,490,3360,490,2880,490C2400,490,1920,490,1440,490C960,490,480,490,240,490L0,490Z"></path><defs><linearGradient id="sw-gradient-1" x1="0" x2="0" y1="1" y2="0"><stop stop-color="rgba(65, 102, 97, 1)" offset="0%"></stop><stop stop-color="rgba(52, 52, 52, 1)" offset="100%"></stop></linearGradient></defs><path style="transform:translate(0, 50px); opacity:0.9" fill="url(#sw-gradient-1)" d="M0,343L240,351.2C480,359,960,376,1440,318.5C1920,261,2400,131,2880,81.7C3360,33,3840,65,4320,65.3C4800,65,5280,33,5760,89.8C6240,147,6720,294,7200,343C7680,392,8160,343,8640,334.8C9120,327,9600,359,10080,367.5C10560,376,11040,359,11520,334.8C12000,310,12480,278,12960,294C13440,310,13920,376,14400,383.8C14880,392,15360,343,15840,302.2C16320,261,16800,229,17280,179.7C17760,131,18240,65,18720,32.7C19200,0,19680,0,20160,32.7C20640,65,21120,131,21600,179.7C22080,229,22560,261,23040,285.8C23520,310,24000,327,24480,343C24960,359,25440,376,25920,375.7C26400,376,26880,359,27360,326.7C27840,294,28320,245,28800,236.8C29280,229,29760,261,30240,269.5C30720,278,31200,261,31680,285.8C32160,310,32640,376,33120,334.8C33600,294,34080,147,34320,73.5L34560,0L34560,490L34320,490C34080,490,33600,490,33120,490C32640,490,32160,490,31680,490C31200,490,30720,490,30240,490C29760,490,29280,490,28800,490C28320,490,27840,490,27360,490C26880,490,26400,490,25920,490C25440,490,24960,490,24480,490C24000,490,23520,490,23040,490C22560,490,22080,490,21600,490C21120,490,20640,490,20160,490C19680,490,19200,490,18720,490C18240,490,17760,490,17280,490C16800,490,16320,490,15840,490C15360,490,14880,490,14400,490C13920,490,13440,490,12960,490C12480,490,12000,490,11520,490C11040,490,10560,490,10080,490C9600,490,9120,490,8640,490C8160,490,7680,490,7200,490C6720,490,6240,490,5760,490C5280,490,4800,490,4320,490C3840,490,3360,490,2880,490C2400,490,1920,490,1440,490C960,490,480,490,240,490L0,490Z"></path></svg>