<?xml version="1.0" standalone="no"?>
<svg xmlns:xlink="http://www.w3.org/1999/xlink" id="wave" style="transform:rotate(0deg); transition: 0.3s" viewBox="0 0 1440 490" version="1.1" xmlns="http://www.w3.org/2000/svg"><defs><linearGradient id="sw-gradient-0" x1="0" x2="0" y1="1" y2="0"><stop stop-color="rgba(0, 65, 64, 1)" offset="0%"/><stop stop-color="rgba(52, 52, 52, 1)" offset="100%"/></linearGradient></defs><path style="transform:translate(0, 0px); opacity:1" fill="url(#sw-gradient-0)" d="M0,294L60,285.8C120,278,240,261,360,277.7C480,294,600,343,720,334.8C840,327,960,261,1080,212.3C1200,163,1320,131,1440,130.7C1560,131,1680,163,1800,147C1920,131,2040,65,2160,49C2280,33,2400,65,2520,122.5C2640,180,2760,261,2880,310.3C3000,359,3120,376,3240,334.8C3360,294,3480,196,3600,138.8C3720,82,3840,65,3960,122.5C4080,180,4200,310,4320,302.2C4440,294,4560,147,4680,147C4800,147,4920,294,5040,326.7C5160,359,5280,278,5400,245C5520,212,5640,229,5760,269.5C5880,310,6000,376,6120,392C6240,408,6360,376,6480,302.2C6600,229,6720,114,6840,81.7C6960,49,7080,98,7200,106.2C7320,114,7440,82,7560,89.8C7680,98,7800,147,7920,187.8C8040,229,8160,261,8280,302.2C8400,343,8520,392,8580,416.5L8640,441L8640,490L8580,490C8520,490,8400,490,8280,490C8160,490,8040,490,7920,490C7800,490,7680,490,7560,490C7440,490,7320,490,7200,490C7080,490,6960,490,6840,490C6720,490,6600,490,6480,490C6360,490,6240,490,6120,490C6000,490,5880,490,5760,490C5640,490,5520,490,5400,490C5280,490,5160,490,5040,490C4920,490,4800,490,4680,490C4560,490,4440,490,4320,490C4200,490,4080,490,3960,490C3840,490,3720,490,3600,490C3480,490,3360,490,3240,490C3120,490,3000,490,2880,490C2760,490,2640,490,2520,490C2400,490,2280,490,2160,490C2040,490,1920,490,1800,490C1680,490,1560,490,1440,490C1320,490,1200,490,1080,490C960,490,840,490,720,490C600,490,480,490,360,490C240,490,120,490,60,490L0,490Z"/></svg>