<?xml version="1.0" standalone="no"?>
<svg xmlns:xlink="http://www.w3.org/1999/xlink" id="wave" style="transform:rotate(0deg); transition: 0.3s" viewBox="0 0 1440 310" version="1.1" xmlns="http://www.w3.org/2000/svg"><defs><linearGradient id="sw-gradient-0" x1="0" x2="0" y1="1" y2="0"><stop stop-color="rgba(0, 65, 64, 1)" offset="0%"/><stop stop-color="rgba(52, 52, 52, 1)" offset="100%"/></linearGradient></defs><path style="transform:translate(0, 0px); opacity:1" fill="url(#sw-gradient-0)" d="M0,155L80,165.3C160,176,320,196,480,196.3C640,196,800,176,960,144.7C1120,114,1280,72,1440,77.5C1600,83,1760,134,1920,129.2C2080,124,2240,62,2400,56.8C2560,52,2720,103,2880,139.5C3040,176,3200,196,3360,196.3C3520,196,3680,176,3840,180.8C4000,186,4160,217,4320,211.8C4480,207,4640,165,4800,160.2C4960,155,5120,186,5280,180.8C5440,176,5600,134,5760,108.5C5920,83,6080,72,6240,98.2C6400,124,6560,186,6720,196.3C6880,207,7040,165,7200,160.2C7360,155,7520,186,7680,191.2C7840,196,8000,176,8160,149.8C8320,124,8480,93,8640,93C8800,93,8960,124,9120,149.8C9280,176,9440,196,9600,211.8C9760,227,9920,238,10080,206.7C10240,176,10400,103,10560,82.7C10720,62,10880,93,11040,98.2C11200,103,11360,83,11440,72.3L11520,62L11520,310L11440,310C11360,310,11200,310,11040,310C10880,310,10720,310,10560,310C10400,310,10240,310,10080,310C9920,310,9760,310,9600,310C9440,310,9280,310,9120,310C8960,310,8800,310,8640,310C8480,310,8320,310,8160,310C8000,310,7840,310,7680,310C7520,310,7360,310,7200,310C7040,310,6880,310,6720,310C6560,310,6400,310,6240,310C6080,310,5920,310,5760,310C5600,310,5440,310,5280,310C5120,310,4960,310,4800,310C4640,310,4480,310,4320,310C4160,310,4000,310,3840,310C3680,310,3520,310,3360,310C3200,310,3040,310,2880,310C2720,310,2560,310,2400,310C2240,310,2080,310,1920,310C1760,310,1600,310,1440,310C1280,310,1120,310,960,310C800,310,640,310,480,310C320,310,160,310,80,310L0,310Z"/></svg>