<?xml version="1.0" standalone="no"?>
<svg xmlns:xlink="http://www.w3.org/1999/xlink" id="wave" style="transform:rotate(0deg); transition: 0.3s" viewBox="0 0 1440 310" version="1.1" xmlns="http://www.w3.org/2000/svg"><defs><linearGradient id="sw-gradient-0" x1="0" x2="0" y1="1" y2="0"><stop stop-color="rgba(0, 65, 64, 1)" offset="0%"/><stop stop-color="rgba(52, 52, 52, 1)" offset="100%"/></linearGradient></defs><path style="transform:translate(0, 0px); opacity:1" fill="url(#sw-gradient-0)" d="M0,62L80,98.2C160,134,320,207,480,232.5C640,258,800,238,960,222.2C1120,207,1280,196,1440,201.5C1600,207,1760,227,1920,217C2080,207,2240,165,2400,155C2560,145,2720,165,2880,155C3040,145,3200,103,3360,93C3520,83,3680,103,3840,124C4000,145,4160,165,4320,149.8C4480,134,4640,83,4800,87.8C4960,93,5120,155,5280,155C5440,155,5600,93,5760,98.2C5920,103,6080,176,6240,211.8C6400,248,6560,248,6720,248C6880,248,7040,248,7200,222.2C7360,196,7520,145,7680,134.3C7840,124,8000,155,8160,170.5C8320,186,8480,186,8640,170.5C8800,155,8960,124,9120,93C9280,62,9440,31,9600,62C9760,93,9920,186,10080,206.7C10240,227,10400,176,10560,175.7C10720,176,10880,227,11040,248C11200,269,11360,258,11440,253.2L11520,248L11520,310L11440,310C11360,310,11200,310,11040,310C10880,310,10720,310,10560,310C10400,310,10240,310,10080,310C9920,310,9760,310,9600,310C9440,310,9280,310,9120,310C8960,310,8800,310,8640,310C8480,310,8320,310,8160,310C8000,310,7840,310,7680,310C7520,310,7360,310,7200,310C7040,310,6880,310,6720,310C6560,310,6400,310,6240,310C6080,310,5920,310,5760,310C5600,310,5440,310,5280,310C5120,310,4960,310,4800,310C4640,310,4480,310,4320,310C4160,310,4000,310,3840,310C3680,310,3520,310,3360,310C3200,310,3040,310,2880,310C2720,310,2560,310,2400,310C2240,310,2080,310,1920,310C1760,310,1600,310,1440,310C1280,310,1120,310,960,310C800,310,640,310,480,310C320,310,160,310,80,310L0,310Z"/></svg>